<?xml version="1.0" encoding="iso-8859-1"?>
<!-- Generator: Adobe Illustrator 19.0.0, SVG Export Plug-In . SVG Version: 6.00 Build 0)  -->
<svg version="1.1" id="Capa_1" xmlns="http://www.w3.org/2000/svg" x="0px" y="0px"
	 viewBox="0 0 512 512" style="enable-background:new 0 0 512 512;" xml:space="preserve">
<g>
	<g>
		<path d="M497,0H15C6.716,0,0,6.716,0,15v482c0,8.284,6.716,15,15,15h482c8.284,0,15-6.716,15-15V15C512,6.716,505.284,0,497,0z
			 M122.009,411.204c-2.8,2.79-6.66,4.391-10.609,4.391c-3.95,0-7.82-1.601-10.61-4.391c-2.79-2.79-4.39-6.649-4.39-10.609
			c0-3.94,1.6-7.81,4.39-10.601c2.8-2.79,6.66-4.39,10.61-4.39c3.949,0,7.81,1.6,10.609,4.39c2.79,2.79,4.391,6.66,4.391,10.601
			C126.399,404.545,124.799,408.414,122.009,411.204z M122.009,314.805c-2.8,2.8-6.66,4.399-10.609,4.399
			c-3.95,0-7.811-1.6-10.61-4.399c-2.79-2.79-4.39-6.66-4.39-10.601c0-3.949,1.6-7.819,4.39-10.609c2.8-2.79,6.66-4.391,10.61-4.391
			c3.949,0,7.81,1.601,10.609,4.391c2.79,2.79,4.391,6.66,4.391,10.609C126.399,308.145,124.799,312.015,122.009,314.805z
			 M122.009,218.404c-2.8,2.79-6.66,4.4-10.609,4.4c-3.95,0-7.811-1.61-10.61-4.4c-2.79-2.79-4.39-6.66-4.39-10.6
			c0-3.95,1.6-7.82,4.39-10.61c2.8-2.79,6.66-4.399,10.61-4.399c3.949,0,7.819,1.609,10.609,4.399c2.79,2.79,4.391,6.65,4.391,10.61
			C126.399,211.744,124.799,215.614,122.009,218.404z M122.009,122.005c-2.79,2.8-6.66,4.399-10.609,4.399
			c-3.95,0-7.811-1.6-10.61-4.399c-2.79-2.79-4.39-6.66-4.39-10.61c0-3.94,1.6-7.811,4.39-10.6c2.8-2.79,6.66-4.391,10.61-4.391
			c3.949,0,7.819,1.601,10.609,4.391c2.79,2.789,4.391,6.659,4.391,10.6C126.399,115.345,124.799,119.215,122.009,122.005z
			 M400.6,415.601H207.8c-8.284,0-15-6.716-15-15s6.716-15,15-15h192.8c8.284,0,15,6.716,15,15S408.884,415.601,400.6,415.601z
			 M400.6,319.2H207.8c-8.284,0-15-6.716-15-15s6.716-15,15-15h192.8c8.284,0,15,6.716,15,15S408.884,319.2,400.6,319.2z
			 M400.6,222.8H207.8c-8.284,0-15-6.716-15-15s6.716-15,15-15h192.8c8.284,0,15,6.716,15,15S408.884,222.8,400.6,222.8z
			 M400.6,126.4H207.8c-8.284,0-15-6.716-15-15s6.716-15,15-15h192.8c8.284,0,15,6.716,15,15S408.884,126.4,400.6,126.4z"/>
	</g>
</g>
<g>
</g>
<g>
</g>
<g>
</g>
<g>
</g>
<g>
</g>
<g>
</g>
<g>
</g>
<g>
</g>
<g>
</g>
<g>
</g>
<g>
</g>
<g>
</g>
<g>
</g>
<g>
</g>
<g>
</g>
</svg>
